<svg xmlns="http://www.w3.org/2000/svg" width="52" height="25" viewBox="0 0 52 25"><defs><style>.cls-1{fill:#e3e2db;fill-rule:evenodd}</style></defs><path id="Shape_4_copy" data-name="Shape 4 copy" class="cls-1" d="M1449.7 5081.81a24.816 24.816 0 0 0-8.44-2.06 26.16 26.16 0 0 1-8.74-2.11 7.792 7.792 0 0 0-.8 2.55 25.415 25.415 0 0 0 8.79.98 25.437 25.437 0 0 1 8.84.99 27.884 27.884 0 0 1 3.57 1.16 33.222 33.222 0 0 0-3.22-1.51zm-.52 1.52a24.482 24.482 0 0 0-8.64-.97 26.182 26.182 0 0 1-8.93-.98c-.15.89-.26 1.84-.35 2.77a25.5 25.5 0 0 0 8.6-.22 25.191 25.191 0 0 1 8.88-.19 27.75 27.75 0 0 1 4.13.8 29.009 29.009 0 0 0-3.69-1.21zm-9.21 1.78a25.938 25.938 0 0 1-8.78.23c-.09 1.01-.15 1.95-.18 2.65a25.771 25.771 0 0 0 8.61-1.32 25.2 25.2 0 0 1 8.78-1.32 28.863 28.863 0 0 1 3.75.21 28.561 28.561 0 0 0-3.49-.63 24.339 24.339 0 0 0-8.69.18zm33.52-3.93a25.589 25.589 0 0 0 8.82-.98 6.767 6.767 0 0 0-.79-2.56 26.1 26.1 0 0 1-8.77 2.13 24.382 24.382 0 0 0-8.45 2.06 29.05 29.05 0 0 0-3.22 1.51 30.194 30.194 0 0 1 3.58-1.17 25.367 25.367 0 0 1 8.83-.99zm7.7-4.65l-4.67-13.52a21.062 21.062 0 0 1-6.93 1.65 19.614 19.614 0 0 0-6.78 1.65c-4.6 1.88-4.85 3.05-4.98 3.68a1.084 1.084 0 0 1-.55.86v15.37a.01.01 0 0 1 .01-.01.929.929 0 0 0 .05-.1 2.434 2.434 0 0 0 .09-.33c.21-.98.56-2.62 6.63-5.1a25.12 25.12 0 0 1 8.63-2.1 25.668 25.668 0 0 0 8.5-2.05zm-7.05 7.41a25.332 25.332 0 0 0 8.62.22c-.1-.96-.21-1.91-.34-2.77a25.829 25.829 0 0 1-8.96.98 24.654 24.654 0 0 0-8.63.97 29.02 29.02 0 0 0-3.7 1.22 27.558 27.558 0 0 1 4.13-.81 25.191 25.191 0 0 1 8.88.19zm.25 2.74a25.463 25.463 0 0 0 8.61 1.32c-.04-.81-.1-1.72-.18-2.65a25.737 25.737 0 0 1-8.79-.23 24.811 24.811 0 0 0-8.69-.18 31.054 31.054 0 0 0-3.49.63 31.182 31.182 0 0 1 3.75-.2 25.322 25.322 0 0 1 8.79 1.31zm-17.82-.92c.02.09.03.15.05.21v-15.12a1.084 1.084 0 0 1-.55-.86c-.14-.63-.39-1.8-4.98-3.68a19.614 19.614 0 0 0-6.78-1.65 21.009 21.009 0 0 1-6.93-1.65l-4.57 13.51a25.333 25.333 0 0 0 8.5 2.04 25.531 25.531 0 0 1 8.64 2.11c6.07 2.47 6.41 4.11 6.62 5.09z" transform="translate(-1431 -5063)"/></svg>